<svg width="512" height="512" viewBox="0 0 512 512" fill="none" xmlns="http://www.w3.org/2000/svg">
  <!-- Background circle -->
  <circle cx="256" cy="256" r="240" fill="#1E3A5F"/>
  
  <!-- Shield shape -->
  <path d="M256 80C256 80 128 120 128 200V320C128 380 180 440 256 460C332 440 384 380 384 320V200C384 120 256 80 256 80Z" fill="#3B82F6" stroke="#60A5FA" stroke-width="8"/>
  
  <!-- Checkmark -->
  <path d="M200 260L240 300L320 200" stroke="white" stroke-width="24" stroke-linecap="round" stroke-linejoin="round"/>
  
  <!-- AI dots pattern -->
  <circle cx="180" cy="160" r="8" fill="#60A5FA"/>
  <circle cx="332" cy="160" r="8" fill="#60A5FA"/>
  <circle cx="180" cy="380" r="8" fill="#60A5FA"/>
  <circle cx="332" cy="380" r="8" fill="#60A5FA"/>
  
  <!-- Connection lines -->
  <line x1="180" y1="168" x2="200" y2="252" stroke="#60A5FA" stroke-width="2" opacity="0.5"/>
  <line x1="332" y1="168" x2="312" y2="208" stroke="#60A5FA" stroke-width="2" opacity="0.5"/>
  
  <!-- AMTTP text -->
  <text x="256" y="500" font-family="Arial, sans-serif" font-size="48" font-weight="bold" fill="white" text-anchor="middle">AMTTP</text>
</svg>
